<?xml version="1.0" encoding="UTF-8"?>
<svg width="28px" height="23px" viewBox="0 0 28 23" version="1.1" xmlns="http://www.w3.org/2000/svg" xmlns:xlink="http://www.w3.org/1999/xlink">
    <!-- Generator: Sketch 58 (84663) - https://sketch.com -->
    <title>Highscore</title>
    <desc>Created with Sketch.</desc>
    <g id="Page-1" stroke="none" stroke-width="1" fill="none" fill-rule="evenodd">
        <g id="Start" transform="translate(-602.000000, -40.000000)" fill="#FFFFFF" fill-rule="nonzero">
            <g id="Group" transform="translate(25.000000, 25.000000)">
                <g id="Highscore-button" transform="translate(565.000000, 0.000000)">
                    <path d="M34.443999,16.4068805 C34.4621055,15.5486291 34.4295137,15.0063373 34.4295137,15.0063373 L26.0425504,15 L26.0425504,15 L26,15 L25.9574496,15 L25.9574496,15 L17.569581,15.0063373 C17.569581,15.0063373 17.5378945,15.5486291 17.556001,16.4068805 L12,16.4068805 L12,17.3230729 C12,17.5322038 12.0353078,22.4653389 15.0799276,25.1677444 C16.3501035,26.2948784 17.9344283,26.8616141 19.8021211,26.8625194 C20.0845835,26.8625194 20.375194,26.8435075 20.6694258,26.8181583 C21.7304708,28.2712106 22.9562856,29.2887998 24.3351009,29.7957838 L24.3351009,33.819969 L20.2873771,33.819969 L20.2873771,36.3404035 L18.9502069,36.3404035 L18.9502069,37.7536213 L25.9574496,37.7536213 L26.0425504,37.7536213 L33.0497931,37.7536213 L33.0497931,36.3413088 L31.7117175,36.3413088 L31.7117175,33.8208743 L27.6639938,33.8208743 L27.6639938,29.7966891 C29.0419038,29.2897051 30.2686239,28.2721159 31.3296689,26.8190636 C31.6257113,26.8444128 31.9163218,26.8625194 32.1987843,26.8625194 C34.0655717,26.8607087 35.6498965,26.2948784 36.9200724,25.1668391 C39.9646922,22.4644335 40,17.5312985 40,17.3221676 L40,16.4068805 L34.443999,16.4068805 Z M16.3021211,23.8016037 C14.562985,22.2625453 14.0487584,19.6280393 13.8966632,18.2392654 L17.6610191,18.2392654 C17.820357,19.9693482 18.195163,22.1249353 19.0597517,24.0197879 C19.2181842,24.367434 19.3847646,24.6969736 19.5549664,25.0192706 C18.2576306,24.9694775 17.1658044,24.5647957 16.3021211,23.8016037 Z M35.6978789,23.8016037 C34.8351009,24.565701 33.7423694,24.9694775 32.445939,25.0192706 C32.6161407,24.6978789 32.7827212,24.367434 32.9411536,24.0197879 C33.8057424,22.1249353 34.1805484,19.9693482 34.3389809,18.2392654 L38.1033368,18.2392654 C37.9512416,19.627134 37.4379203,22.2616399 35.6978789,23.8016037 Z" id="Highscore"></path>
                </g>
            </g>
        </g>
    </g>
</svg>