<?xml version="1.0" encoding="UTF-8"?>
<svg width="24px" height="24px" viewBox="0 0 24 24" version="1.1" xmlns="http://www.w3.org/2000/svg" xmlns:xlink="http://www.w3.org/1999/xlink">
    <!-- Generator: Sketch 58 (84663) - https://sketch.com -->
    <title>Settings</title>
    <desc>Created with Sketch.</desc>
    <g id="Page-1" stroke="none" stroke-width="1" fill="none" fill-rule="evenodd">
        <g id="Start" transform="translate(-39.000000, -39.000000)" fill="#FFFFFF" fill-rule="nonzero">
            <g id="Group" transform="translate(25.000000, 25.000000)">
                <g id="Settings-button">
                    <path d="M34.9815594,27.2663055 C34.9815594,26.9044972 35.1039775,26.5426889 35.1039775,26.0602777 C35.1039775,25.5778666 35.1039775,25.2160583 34.9815594,24.85425 L37.5523385,22.8040028 C37.7971745,22.5627972 37.7971745,22.3215916 37.6747565,22.0803861 L35.2263955,17.8592889 C35.1039775,17.7386861 34.8591894,17.6180833 34.4918872,17.7386861 L31.431436,18.9447139 C30.8193458,18.4623028 30.0848375,18.1004944 29.3503292,17.7386861 L28.860657,14.6030139 C28.9830751,14.2412056 28.6157729,14 28.3709848,14 L23.4742629,14 C23.2293788,14 22.8621727,14.2412056 22.8621727,14.4824111 L22.3725005,17.7386861 C21.6379922,17.9798917 21.0259019,18.4623028 20.2913937,18.9447139 L17.3533605,17.7386861 C16.9861064,17.6180833 16.7412703,17.7386861 16.4963862,17.9798917 L14.0480252,22.2009889 C13.9256071,22.3215916 14.0480252,22.6834 14.2928613,22.9246055 L16.8636403,24.85425 C16.8636403,25.2160583 16.7412223,25.5778666 16.7412223,26.0602777 C16.7412223,26.5426889 16.7412223,26.9044972 16.8636403,27.2663055 L14.2928613,29.3165527 C14.0480252,29.5578056 14.0480252,29.7989638 14.1704432,30.0402167 L16.6188042,34.2613139 C16.7412223,34.3819167 16.9860103,34.5025195 17.3533125,34.3819167 L20.4137637,33.1758889 C21.0258539,33.6583 21.7603622,34.0201083 22.4948705,34.3819167 L22.9845427,37.5175889 C22.9845427,37.7587944 23.2293788,38 23.596633,38 L28.4933549,38 C28.738239,38 29.1054451,37.7587471 29.1054451,37.5175889 L29.5951173,34.3819167 C30.3296256,34.0201083 31.0641339,33.6583 31.6762241,33.1758889 L34.7366753,34.3819167 C34.9815594,34.5025195 35.3487656,34.3819167 35.4712316,34.1406638 L37.9195926,29.9195666 C38.0420106,29.6783611 38.0420106,29.3165527 37.7971265,29.19595 L34.9815594,27.2663055 Z M25.5862069,30.5517241 C23.3399015,30.5517241 21.4482759,28.6600985 21.4482759,26.4137931 C21.4482759,24.1674877 23.3399015,22.2758621 25.5862069,22.2758621 C27.8325123,22.2758621 29.7241379,24.1674877 29.7241379,26.4137931 C29.7241379,28.6600985 27.8325123,30.5517241 25.5862069,30.5517241 Z" id="Settings"></path>
                </g>
            </g>
        </g>
    </g>
</svg>
